<svg version="1.1" id="Layer_1" xmlns="http://www.w3.org/2000/svg" xmlns:xlink="http://www.w3.org/1999/xlink" x="0px" y="0px"
	 width="100%" viewBox="0 0 1280 1280" enable-background="new 0 0 1280 1280" xml:space="preserve">

<path fill="#1CF8FD" opacity="1.000000" stroke="none" 
	d="
M640.751709,835.747559 
	C651.834412,822.674744 662.875305,810.025574 673.440491,796.990967 
	C685.937317,781.573364 698.156616,765.925110 710.241211,750.181091 
	C718.411072,739.537354 726.120300,728.540649 734.078796,717.733704 
	C736.641235,714.254089 739.016602,711.642212 744.275940,714.443237 
	C749.604004,717.280762 757.844543,714.042053 761.495544,708.966064 
	C765.468018,703.443237 765.072449,694.985229 759.778870,689.493713 
	C756.523499,686.116638 756.931030,683.851562 759.189941,680.120728 
	C773.595947,656.328064 788.009521,632.528748 801.778809,608.365906 
	C810.707153,592.698181 818.650085,576.462585 826.833435,560.379150 
	C831.442566,551.320496 835.626221,542.045837 840.047119,532.890442 
	C840.726868,531.482666 841.652954,530.193848 843.535400,529.078735 
	C843.690125,530.254395 843.979858,531.429932 843.980347,532.605652 
	C844.002502,590.104614 843.812439,647.604614 844.145508,705.101624 
	C844.219116,717.796875 837.759949,727.047852 831.002197,736.463135 
	C811.244568,763.990601 791.586243,791.592590 771.517517,818.892273 
	C758.706787,836.318848 745.542847,853.507629 731.964600,870.341064 
	C721.313171,883.545898 709.938293,896.181030 698.609741,908.822754 
	C679.307556,930.362549 660.197571,952.098328 640.237915,973.018066 
	C622.969971,991.116760 604.760681,1008.328308 586.714783,1025.669067 
	C578.273926,1033.780029 569.446655,1041.524658 560.419983,1048.981934 
	C547.516479,1059.641724 534.527954,1070.232910 521.106323,1080.222778 
	C502.731903,1093.899048 484.148468,1107.322388 465.235596,1120.240601 
	C438.038757,1138.817261 408.517517,1152.845337 376.999542,1162.401123 
	C362.031128,1166.939331 346.585083,1169.606201 330.857056,1168.925537 
	C313.537231,1168.176025 297.445984,1163.207886 284.720734,1150.992676 
	C273.473236,1140.195801 267.076782,1126.330688 263.003052,1111.373779 
	C257.954285,1092.837036 257.117004,1073.871338 258.180817,1054.894165 
	C258.810669,1043.657959 261.193604,1032.517944 262.833618,1021.341187 
	C264.188263,1012.109314 265.787720,1002.909180 266.926270,993.651611 
	C267.496490,989.015259 268.914429,986.810669 274.239227,986.872803 
	C298.902069,987.160583 323.571167,986.898254 348.234985,987.139526 
	C351.055328,987.167114 354.331268,988.509827 356.583923,990.277588 
	C365.693512,997.426025 375.653625,1001.910217 387.312988,1003.082397 
	C408.556091,1005.218323 428.132080,999.259460 447.255615,991.269165 
	C478.651642,978.151062 506.292175,958.768677 533.062073,938.193054 
	C545.843079,928.369324 557.903442,917.542908 569.756104,906.592468 
	C586.337341,891.273193 602.571106,875.567444 618.648926,859.718079 
	C626.295410,852.180420 633.238037,843.928772 640.751709,835.747559 
z"/>
<path fill="#1CF8FD" opacity="1.000000" stroke="none" 
	d="
M165.994812,981.000000 
	C127.829773,981.000000 90.163765,981.000061 52.497749,980.999634 
	C51.331112,980.999634 50.153049,981.099854 48.999702,980.974731 
	C41.507442,980.161499 38.833183,975.342102 42.235554,968.493713 
	C49.751308,953.365784 57.487911,938.346924 64.925468,923.181091 
	C73.012024,906.691772 80.609985,889.959229 88.888474,873.568848 
	C96.572395,858.355591 104.708038,843.362366 112.971725,828.453430 
	C117.026016,821.138916 123.477501,817.900208 132.153259,817.909363 
	C256.984314,818.041870 381.815491,817.986633 506.646667,818.023315 
	C517.653259,818.026550 516.052490,815.687012 516.029968,808.502991 
	C515.952209,783.670349 516.003479,758.837280 515.997742,734.004395 
	C515.996155,727.368347 515.617310,727.001831 508.804047,727.001587 
	C432.472046,726.999084 356.139709,726.897888 279.808350,727.117371 
	C269.169769,727.147949 260.912506,718.125000 260.922791,708.055298 
	C261.043152,590.057495 260.998596,472.059479 261.002563,354.061523 
	C261.002899,344.128052 267.666046,337.145325 277.499146,337.020508 
	C308.101929,336.632050 338.705627,336.063202 369.309265,336.045135 
	C531.973083,335.949158 694.636963,336.000000 857.300781,336.000000 
	C868.448914,336.000000 869.137207,336.334839 871.519592,347.172333 
	C872.782043,352.915497 873.307800,358.832367 873.960754,364.693665 
	C874.382935,368.483246 872.375916,370.205292 868.610840,370.010437 
	C867.281067,369.941620 865.944763,369.999969 864.611450,369.999969 
	C677.114685,370.000000 489.617950,369.999908 302.121185,370.000275 
	C294.033142,370.000275 294.000336,370.032837 294.000275,378.079010 
	C293.999725,441.577911 293.935944,505.076904 294.045685,568.575623 
	C294.072632,584.179871 294.911499,599.782898 294.927002,615.386963 
	C294.940826,629.323730 294.106934,643.260498 294.072449,657.198303 
	C294.045380,668.134521 294.554657,679.078491 295.144684,690.001831 
	C295.218719,691.372620 297.034943,692.966614 298.430389,693.839417 
	C299.395569,694.443176 301.025513,693.997864 302.358429,693.997986 
	C327.691315,694.000732 353.024750,694.107849 378.356964,693.977112 
	C427.793823,693.721985 477.229828,693.298035 526.666748,693.065186 
	C530.736633,693.046021 534.961548,693.424866 538.848999,694.542114 
	C545.270508,696.387695 549.949890,703.406616 549.974365,710.493347 
	C550.045715,731.159424 550.129456,751.826904 549.962402,772.491882 
	C549.799866,792.596924 549.279724,812.698792 549.021484,832.803406 
	C548.883667,843.535034 542.527039,849.997681 531.780090,849.997986 
	C413.948792,850.001221 296.117462,849.970947 178.286240,850.043762 
	C166.182266,850.051208 154.067413,850.475525 141.985596,851.183716 
	C139.899689,851.305969 137.120850,853.382263 136.078751,855.318420 
	C128.844528,868.759338 121.909203,882.363708 115.024651,895.989685 
	C107.246155,911.385071 99.617142,926.856018 91.931610,942.298401 
	C89.166145,947.854980 89.237991,947.993591 95.417473,947.994690 
	C147.583237,948.004028 199.748993,948.000000 251.914764,948.000000 
	C281.247589,948.000000 310.581024,948.120544 339.913086,947.971924 
	C384.516846,947.745972 429.119263,947.232056 473.723114,947.076233 
	C483.976929,947.040405 494.234039,947.962341 505.375427,948.485046 
	C504.200684,949.897827 503.468994,951.398010 502.268890,952.126526 
	C488.172272,960.684448 474.280273,969.648071 459.713257,977.326477 
	C454.355804,980.150452 447.367737,980.794861 441.110168,980.847229 
	C404.113403,981.156982 367.112183,981.126465 330.113495,980.968201 
	C282.676453,980.765320 235.240616,980.285828 187.803635,980.051270 
	C180.702118,980.016174 173.597183,980.666626 165.994812,981.000000 
z"/>
<path fill="#1CF8FD" opacity="1.000000" stroke="none" 
	d="
M764.272888,262.233093 
	C778.767334,252.070663 792.745972,241.768860 807.286499,232.332977 
	C837.032715,213.029678 868.076965,196.292633 902.224426,185.838531 
	C919.678284,180.495071 937.577087,178.292557 955.479370,180.274323 
	C986.043030,183.657654 1004.576355,202.216843 1013.889343,230.761459 
	C1017.935791,243.164108 1020.121338,255.895599 1020.013855,268.990143 
	C1019.941162,277.854095 1020.670837,286.781586 1019.852295,295.569916 
	C1018.409668,311.058838 1016.441895,326.523865 1014.006958,341.890045 
	C1009.058289,373.119385 1000.096191,403.352661 989.350769,432.998627 
	C981.118469,455.711304 972.218140,478.214020 962.709167,500.422302 
	C954.138306,520.439697 944.896362,540.218384 934.928101,559.575867 
	C923.988037,580.820435 911.921021,601.486633 900.265625,622.360474 
	C890.131287,640.510254 880.034058,658.683655 869.628723,676.677979 
	C864.246155,685.986328 858.230164,694.928406 851.201660,703.874207 
	C851.134399,702.575806 851.008667,701.277344 851.008484,699.978943 
	C850.998840,636.980225 850.729187,573.979004 851.327576,510.985962 
	C851.406311,502.695068 855.991089,494.464417 858.380493,486.174622 
	C864.293518,465.659668 870.607910,445.244995 875.879761,424.565338 
	C880.525208,406.342438 882.744629,387.601074 881.851318,368.791412 
	C880.949341,349.799469 877.350220,331.251343 864.486694,316.175964 
	C856.662415,307.006409 846.261169,301.879913 834.332092,300.006287 
	C810.284302,296.229218 788.139282,302.949493 766.733765,312.807709 
	C756.922668,317.326172 747.614380,322.931580 738.033020,327.958069 
	C736.325562,328.853851 734.402405,329.889160 732.569092,329.907837 
	C717.289429,330.063660 702.007507,329.996246 685.191833,329.996246 
	C693.690002,321.979736 701.049377,314.697388 708.783386,307.837494 
	C716.528564,300.967621 724.582092,294.438690 732.619995,287.907440 
	C742.426758,279.938934 752.361206,272.127777 762.228455,264.233612 
	C762.875000,263.716309 763.419434,263.071289 764.272888,262.233093 
z"/>
<path fill="#1CF8FD" opacity="1.000000" stroke="none" 
	d="
M1025.610229,337.026062 
	C1032.711792,337.256561 1039.991699,335.372650 1045.354492,340.879089 
	C1048.806152,344.423218 1051.889648,348.534485 1054.275757,352.866577 
	C1060.131470,363.498077 1065.640259,374.329346 1071.016968,385.214355 
	C1087.648560,418.884277 1104.107910,452.639282 1120.724243,486.316803 
	C1131.175781,507.499847 1141.767700,528.613892 1152.339722,549.737366 
	C1156.746094,558.541382 1159.032104,567.777222 1159.028687,577.670654 
	C1158.985107,703.827698 1159.011475,829.984680 1158.941528,956.141663 
	C1158.939453,959.717102 1158.576416,963.451538 1157.509277,966.836792 
	C1154.465698,976.492188 1149.634521,980.901367 1138.753662,980.912659 
	C1008.930420,981.047974 879.106995,981.006042 749.283569,980.988586 
	C738.740906,980.987183 731.019470,973.140869 731.008362,962.497620 
	C730.982178,937.499512 731.010010,912.501465 730.991028,887.503357 
	C730.987488,882.839294 732.789001,879.181580 735.793762,875.523926 
	C743.933777,865.614990 751.550171,855.277100 759.471802,845.185974 
	C760.455017,843.933533 762.028259,843.144226 763.328125,842.140381 
	C763.885437,843.736694 764.907288,845.327576 764.925842,846.930115 
	C765.062805,858.760986 765.117737,870.595581 764.972595,882.426270 
	C764.740173,901.363342 764.293335,920.297729 764.020752,939.234436 
	C763.919556,946.267212 764.736023,946.997925 771.583618,946.999329 
	C783.582703,947.001770 795.583557,946.872742 807.580322,947.040222 
	C817.186279,947.174377 826.785400,947.751892 836.391296,947.968872 
	C842.405823,948.104736 842.995178,947.411255 842.995789,941.409790 
	C843.002380,874.081604 843.014282,806.753418 842.980225,739.425232 
	C842.976379,731.807983 845.556274,725.184387 851.174255,719.004700 
	C851.449524,721.056519 851.964172,723.108215 851.965393,725.160156 
	C852.006897,796.654724 851.999939,868.149231 852.000244,939.643799 
	C852.000244,946.998474 852.001282,946.999023 859.288940,946.999817 
	C866.121765,947.000610 872.956055,946.907227 879.787048,947.018250 
	C896.890625,947.296265 913.992065,947.710876 931.095703,947.978577 
	C938.105591,948.088318 939.979004,946.263428 939.981995,939.293579 
	C940.011536,869.798889 940.004150,800.304199 939.989136,730.809509 
	C939.988281,726.869385 939.151184,723.560364 935.060852,721.443604 
	C926.869568,717.204529 924.373169,707.687866 929.018433,699.913513 
	C933.602417,692.241943 944.069275,689.456055 951.421570,693.950562 
	C959.760925,699.048523 962.161926,709.069275 956.849182,717.263489 
	C956.008850,718.559631 954.549133,719.656860 953.131836,720.339539 
	C948.223328,722.703796 946.082458,726.941711 946.075989,731.901428 
	C945.982422,803.061829 946.032959,874.222412 946.059875,945.382996 
	C946.059998,945.694214 946.218628,946.005432 946.307739,946.315430 
	C956.441772,948.596985 1026.798218,948.737488 1041.986816,946.435120 
	C1041.986816,872.590454 1041.986816,798.674622 1041.986816,724.139038 
	C1039.468262,722.580994 1035.961304,721.063416 1033.286499,718.630737 
	C1026.151611,712.141663 1026.030273,702.738708 1032.563721,695.935974 
	C1038.402954,689.856079 1048.503662,690.032898 1055.261597,695.627991 
	C1063.751831,702.657410 1061.721191,714.807495 1053.530518,720.455566 
	C1051.155518,722.093323 1049.195801,726.167419 1049.185791,729.131897 
	C1048.946655,799.625732 1049.029175,870.120544 1048.934814,940.615051 
	C1048.928467,945.326538 1050.532104,947.107361 1055.315186,947.070557 
	C1076.479004,946.907410 1097.644897,947.012512 1118.809937,946.992004 
	C1124.813843,946.986206 1125.521484,945.092285 1125.343384,939.276672 
	C1124.968262,927.018433 1125.620850,914.731201 1125.738403,902.454773 
	C1125.830566,892.814514 1125.753784,883.172546 1125.741821,873.531372 
	C1125.741699,873.380615 1125.546509,873.230103 1125.546143,873.079224 
	C1125.484497,851.470703 1125.417603,829.862244 1125.407593,808.253723 
	C1125.406738,806.460876 1125.981079,804.666992 1125.972778,802.875061 
	C1125.671753,737.275940 1125.297241,671.677124 1125.071655,606.077759 
	C1125.054443,601.074158 1122.866699,599.933838 1118.378296,599.940674 
	C1059.716187,600.030029 1001.054016,600.000000 942.391846,599.999939 
	C941.225281,599.999939 940.056213,600.048889 938.892456,599.990967 
	C929.955383,599.546082 925.108154,591.672363 929.165833,583.700500 
	C935.711121,570.841370 942.614014,558.164673 949.226074,545.338867 
	C951.823181,540.301270 954.043884,535.069519 957.536865,530.101624 
	C957.691101,531.274170 957.974182,532.446106 957.979187,533.619263 
	C958.016846,542.451782 957.992004,551.284546 958.002563,560.117188 
	C958.010193,566.482727 958.509949,566.995850 964.816772,566.996826 
	C1004.480408,567.003113 1044.144287,566.933044 1083.807617,567.045715 
	C1094.078369,567.074890 1104.346436,567.707947 1114.618408,567.956726 
	C1116.206299,567.995178 1117.859253,567.623413 1119.394165,567.153992 
	C1123.736450,565.826111 1124.756104,563.520935 1122.780151,559.543274 
	C1117.121216,548.151611 1111.514648,536.732178 1105.699463,525.420227 
	C1098.427002,511.273804 1090.885864,497.265533 1083.608765,483.121429 
	C1074.220703,464.874512 1064.983643,446.550049 1055.673584,428.263031 
	C1046.676392,410.590454 1037.629761,392.942810 1028.697144,375.237640 
	C1026.772217,371.422211 1024.207886,369.352478 1019.703308,369.956970 
	C1015.457031,370.526764 1014.538147,367.927368 1015.287842,364.433990 
	C1016.793518,357.417603 1018.439331,350.431244 1020.031982,343.433563 
	C1020.706116,340.471649 1021.626831,337.701508 1025.610229,337.026062 
z"/>
<path fill="#1CF8FD" opacity="1.000000" stroke="none" 
	d="
M670.004639,709.477661 
	C670.000732,734.093689 669.906616,758.255493 670.069763,782.415649 
	C670.107788,788.051819 668.159241,792.667725 664.683167,796.784180 
	C657.038635,805.836609 649.323853,814.830200 641.559692,823.780151 
	C640.929626,824.506470 639.702820,824.715027 638.000000,825.520508 
	C638.000000,822.780762 638.000000,820.842163 638.000000,818.903625 
	C638.000000,750.752319 638.000671,682.600952 637.999023,614.449646 
	C637.998840,606.883301 637.098755,606.000916 629.397949,606.000671 
	C581.742004,605.999329 534.085693,605.884033 486.430237,606.043640 
	C457.998535,606.138916 429.567169,606.594116 401.137909,607.033203 
	C388.506378,607.228210 381.954376,597.847351 381.972656,587.964294 
	C382.041077,550.972717 381.992706,513.981018 382.004089,476.989319 
	C382.007904,464.628143 388.737549,458.002716 401.269775,458.002319 
	C528.241211,457.998474 655.212769,458.049622 782.184082,457.954926 
	C805.449707,457.937561 828.714600,457.303864 851.980530,457.017090 
	C859.438965,456.925140 860.045044,457.789764 857.746155,464.551941 
	C854.224426,474.910828 850.686157,485.264160 847.114258,495.605804 
	C846.691345,496.830353 846.013489,497.966858 844.388123,498.823395 
	C844.258362,497.764343 844.061218,496.708527 844.010559,495.645721 
	C843.799561,491.222870 841.398010,489.023254 837.082275,489.017517 
	C811.754639,488.983795 786.426880,488.956970 761.099487,489.033905 
	C755.247253,489.051697 754.007751,490.524323 754.004761,496.508728 
	C753.993042,520.336670 754.127686,544.165894 753.899597,567.991638 
	C753.849915,573.185974 755.360413,576.697632 759.842224,579.438599 
	C765.562134,582.936707 767.166504,588.264465 765.123718,594.627686 
	C762.371521,603.200684 757.698730,607.057190 750.132507,607.000000 
	C743.099670,606.946838 736.750488,602.942017 735.517822,596.851318 
	C734.045288,589.575684 734.269714,583.244995 742.206299,577.764526 
	C744.147156,576.424255 745.781799,573.201538 745.842651,570.800903 
	C746.436584,547.375488 746.709534,523.941284 746.980164,500.508545 
	C747.098389,490.275085 746.763794,490.006042 736.864319,489.009552 
	C726.653809,487.981781 724.473389,489.161804 719.825073,498.534851 
	C711.220764,515.884949 702.771484,533.312866 694.051025,550.604126 
	C687.112305,564.362732 679.706787,577.887451 672.869324,591.694580 
	C671.189758,595.086243 670.149597,599.169617 670.121826,602.944641 
	C669.902649,632.769653 669.994690,662.596985 670.004456,692.423645 
	C670.006409,698.410461 670.595337,698.991272 676.621582,698.995789 
	C693.117859,699.008057 709.615112,698.906006 726.109863,699.062012 
	C730.570496,699.104187 733.761719,698.008423 735.269287,693.427979 
	C736.864990,688.579712 741.289917,688.078064 745.997559,687.675415 
	C742.054565,693.203552 738.411499,698.990967 733.989502,704.104919 
	C732.626404,705.681335 729.132568,705.941528 726.623474,705.915710 
	C710.021606,705.745483 693.422424,705.319275 676.821716,705.012634 
	C673.779968,704.956482 670.734375,705.064758 670.004639,709.477661 
M559.500000,490.000000 
	C513.193848,490.000000 466.887695,489.996521 420.581543,490.004333 
	C414.590485,490.005341 414.006897,490.594360 414.004272,496.612183 
	C413.993866,520.431519 413.996002,544.250854 414.002625,568.070190 
	C414.004425,574.484619 414.498322,575.062744 420.763428,574.984314 
	C444.251251,574.690247 467.737854,574.115784 491.225708,574.071899 
	C508.616150,574.039490 526.007751,574.920593 543.398926,574.926819 
	C559.992981,574.932739 576.586060,574.208008 593.181885,574.035889 
	C609.170776,573.869995 625.164124,573.888123 641.152161,574.089844 
	C644.548584,574.132690 646.750977,573.176147 648.272034,570.228516 
	C654.424988,558.303955 660.706848,546.445068 666.765564,534.473083 
	C671.949707,524.229187 676.931641,513.882141 681.926453,503.543762 
	C683.946655,499.362274 685.763794,495.082672 688.055603,490.000000 
	C644.412476,490.000000 602.456238,490.000000 559.500000,490.000000 
z"/>
<path fill="#1CF8FD" opacity="1.000000" stroke="none" 
	d="
M282.931580,935.925415 
	C287.536499,922.261047 291.893066,908.941772 296.710663,895.791443 
	C300.857330,884.472595 305.567230,873.360840 309.951508,862.127625 
	C311.735687,857.556274 314.649994,855.520691 319.808685,855.903076 
	C328.283478,856.531250 336.804138,856.540771 345.748474,856.825256 
	C343.530548,867.585571 341.255981,877.188416 339.634094,886.900208 
	C338.071808,896.255188 336.847107,905.696594 336.110107,915.149597 
	C335.553497,922.288940 335.967590,929.506653 336.016876,936.689026 
	C336.033264,939.078369 335.802094,941.015259 332.678436,941.008728 
	C315.907623,940.973877 299.136749,940.992249 281.714355,940.992249 
	C282.201233,939.056213 282.542297,937.700012 282.931580,935.925415 
z"/>
<path fill="#1CF8FD" opacity="1.000000" stroke="none" 
	d="
M598.255249,444.245667 
	C590.388550,453.300537 580.402222,452.548096 569.024780,451.589233 
	C574.497925,445.351562 579.231567,439.773254 584.163574,434.376312 
	C592.757019,424.972717 601.543091,415.744904 610.116943,406.323792 
	C618.331238,397.297913 626.414429,388.151672 634.478271,378.990570 
	C637.076294,376.039001 640.092285,374.813110 644.073486,374.929535 
	C652.145874,375.165588 660.230042,375.000000 669.662537,375.000000 
	C667.939331,377.200836 667.384888,378.130432 666.627197,378.844208 
	C649.992432,394.514221 633.286011,410.108551 616.707642,425.837738 
	C610.494812,431.732361 604.569397,437.929962 598.255249,444.245667 
z"/>
<path fill="#1CF8FD" opacity="1.000000" stroke="none" 
	d="
M348.999939,779.001099 
	C356.541992,764.776184 364.069336,750.955688 371.411774,737.037781 
	C373.328491,733.404602 375.762909,731.605774 380.024017,731.928162 
	C384.329346,732.253967 388.678528,732.000000 393.967743,732.000000 
	C391.534119,737.696350 389.279724,742.966125 387.031036,748.238281 
	C378.696228,767.779358 370.274353,787.284302 362.108917,806.895935 
	C360.578613,810.571411 357.986115,811.832581 354.567566,811.948120 
	C349.240692,812.128174 343.899170,812.126282 338.571625,811.956909 
	C333.956543,811.810242 332.940674,810.118408 335.033325,806.002747 
	C339.570770,797.079102 344.278290,788.241882 348.999939,779.001099 
z"/>
<path fill="#1CF8FD" opacity="1.000000" stroke="none" 
	d="
M450.002869,634.970947 
	C442.281097,647.884155 434.628662,660.429871 427.012421,672.997437 
	C425.404510,675.650696 423.855957,678.345703 422.408844,681.089478 
	C419.613556,686.389343 415.655029,689.150330 409.343506,688.078308 
	C406.597992,687.611938 403.707306,688.000000 400.004852,688.000000 
	C402.934021,682.818542 405.437439,677.984192 408.310242,673.380310 
	C419.542236,655.380310 430.704407,637.331665 442.286133,619.557495 
	C447.064423,612.224365 454.213776,610.109497 463.245697,613.788940 
	C458.878113,620.699158 454.481598,627.655151 450.002869,634.970947 
z"/>
<path fill="#1CF8FD" opacity="1.000000" stroke="none" 
	d="
M668.438721,970.059570 
	C662.292175,980.294312 658.659180,981.689941 643.442749,979.390442 
	C652.203552,970.609863 659.080872,960.718445 668.780151,953.631470 
	C669.326477,953.878418 669.872803,954.125427 670.419128,954.372375 
	C669.843689,959.498352 669.268188,964.624268 668.438721,970.059570 
z"/>

<path fill="#1CF8FD" opacity="1.000000" stroke="none" 
	d="
M497.284363,542.345947 
	C507.334625,528.989502 517.261719,515.994812 526.994019,502.855774 
	C531.768250,496.410309 534.809448,495.103851 542.559265,496.736145 
	C544.748535,497.197266 547.067566,497.042572 549.807739,497.197479 
	C541.317871,507.897064 533.029419,518.186646 524.914673,528.611511 
	C515.969910,540.102722 506.955597,551.553345 498.454010,563.368774 
	C495.478119,567.504700 492.295105,569.414978 487.367096,569.038818 
	C484.557739,568.824341 481.718658,569.000000 477.804718,569.000000 
	C484.513458,559.828735 490.797180,551.238525 497.284363,542.345947 
z"/>
</svg>