<?xml version="1.0" encoding="utf-8"?>
<svg viewBox="0 0 1280 1280" xmlns="http://www.w3.org/2000/svg">
 <ellipse  cx="750.309" cy="591.251" rx="15.885" ry="15.885"/>
 <path  d=" M668.438721,970.059570 C662.292175,980.294312 658.659180,981.689941 643.442749,979.390442 C652.203552,970.609863 659.080872,960.718445 668.780151,953.631470 C669.326477,953.878418 669.872803,954.125427 670.419128,954.372375 C669.843689,959.498352 669.268188,964.624268 668.438721,970.059570 z"/>
 <path  d="M 382.025 475.411 L 381.941 590.384 C 382.5 595.171 385.925 603.298 392.558 605.385 C 393.171 606.489 402.286 607.377 401.949 607.101 C 401.788 606.135 625.66 605.613 625.738 606.08 L 632.892 606.121 C 636.999 606.244 638.144 609.106 638.083 613.213 C 637.855 613.213 637.897 825.568 637.899 825.568 C 637.984 825.653 641.318 824.033 641.318 824.033 C 641.318 824.033 667.616 794.114 666.992 793.49 C 667.902 793.49 670.557 784.765 670.016 784.765 C 670.735 785.027 669.273 602.786 670.19 603.075 C 669.735 603.075 671.208 594.553 671.478 594.553 C 671.609 594.946 722.46 494.158 722.346 493.816 C 721.715 493.275 728.101 487.92 729.162 488.83 C 729.162 488.098 744.695 489.185 744.695 490.824 C 745.94 490.824 747.539 495.29 746.861 495.29 L 746.043 569.292 C 745.867 566.705 747.17 574.27 742.414 577.57 L 759.195 578.215 C 756.158 578.334 753.317 571.488 753.942 568.578 L 754.178 536.143 C 754.041 536.346 754.36 509.13 754.086 498.538 C 753.838 497.012 753.592 492.486 755.7 490.386 C 755.34 488.545 766.608 489.022 780.882 488.956 C 805.657 488.841 839.671 489.005 838.502 489.085 C 841.08 489.362 843.359 492.067 843.359 492.067 C 843.075 492.067 844.532 496.351 844.123 498.975 C 844.691 498.859 846.935 496.814 846.839 496.718 C 845.865 497.303 861.205 459.127 858.53 457.749 C 858.53 457.749 823.894 457.982 653.257 457.94 C 565.617 457.918 400.915 457.843 400.915 457.843 C 385.381 458.045 381.86 469.274 382.025 475.411 Z"/>
 <path style="fill:#fff" fill="#ddd" d="M 414.05 494.656 L 414.051 570.036 C 414.179 573.838 414.466 575.058 419.661 574.871 C 419.57 574.629 640.392 575.253 640.763 574.086 C 645.308 574.319 647.33 572.742 648.579 569.721 C 649.174 569.693 688.964 490.6 687.934 490.065 L 538.489 490.02 L 537.492 496.1 L 549.772 497.279 C 549.426 496.755 497.044 564.374 497.385 564.736 C 495.544 567.184 492.589 569.028 488.851 569.103 L 477.95 568.845 C 477.788 568.603 528.39 500.68 528.517 500.871 C 529.453 498.958 534.441 495.644 537.497 496.073 L 540.211 489.992 C 540.211 489.883 419.092 489.973 419.092 490.005 C 414.619 490.017 413.873 491.978 414.05 494.656 Z"/>
 <path  d="M 745.969 687.646 C 746.003 687.839 735.518 702.817 734.336 703.711 C 733.325 705.116 730.677 705.892 727.295 705.905 L 674.862 704.951 C 672.277 704.977 670.015 706.879 670.043 710.381 L 669.901 694.301 C 670.192 697.519 671.451 698.784 673.975 698.888 L 727.097 699.035 C 733.01 699.053 734.851 695.184 735.377 693.044 C 735.84 691.788 736.958 690.219 738.152 689.582 C 740.126 688.248 743.225 687.804 745.951 687.617 C 745.951 687.588 745.95 687.647 745.963 687.642"/>
 <path  d="M 684.99 330.193 C 817.653 197.84 941.391 157.832 984.249 188.993 C 1074.859 244.911 984.235 503.886 850.951 704.864 L 851.241 507.628 C 884.328 420.16 895.17 358.47 864.751 316.14 C 840.088 294.937 806.306 286.347 733.906 329.978"/>
 <path  d="M 441.407 980.733 C 404.409 980.958 51.91 981.238 51.91 981.238 C 44.424 981.487 37.334 977.158 41.977 968.897 C 41.977 968.897 104.12 843.6 112.384 828.691 C 116.438 821.377 123.876 817.998 132.552 817.983 C 257.614 817.77 381.937 817.27 506.16 818.219 C 517.166 818.303 516.122 816.254 516.1 809.07 C 516.022 784.237 516.076 759.404 516.068 734.571 C 516.066 727.935 515.238 727.096 508.874 727.076 C 432.525 726.833 290.855 727.53 279.22 726.862 C 275.129 728.543 260.967 721.382 260.993 708.622 C 261.23 590.624 261.169 472.626 261.073 354.628 C 261.063 341.909 270.576 335.844 277.569 337.587 C 276.532 334.477 857.746 335.815 857.747 335.816 C 868.474 336.182 869.229 335.74 871.59 347.739 C 871.713 347.739 874.237 365.261 874.031 365.261 C 874.657 369.476 870.942 370.525 864.931 370.317 C 864.931 370.317 489.511 370.119 302.191 370.074 C 292.787 370.072 294.09 369.77 294.07 378.646 C 293.556 378.552 294.795 696.119 295.215 690.569 C 296.366 693.365 300.333 694.587 303.129 693.929 L 525.624 693.075 C 538.772 692.13 549.758 697.075 550.044 711.06 C 550.214 711.06 549.665 813.266 549.091 833.37 C 548.785 844.099 544.077 849.672 533.331 849.743 C 415.816 850.521 143.321 849.138 143.701 851.258 C 139.376 850.444 136.484 854.25 135.656 855.885 C 135.656 855.885 99.358 927.094 91.673 942.536 C 88.907 948.093 89.801 947.903 95.98 947.904 C 148.146 947.913 493.971 946.896 505.263 948.402 C 503.144 952.522 500.738 954.162 459.405 977.515 C 453.634 980.055 447.658 980.695 441.407 980.733 Z"/>
 <path  d="M 843.738 528.566 L 844.144 705.695 C 844.214 709.189 843.016 717.454 839.918 722.06 C 830.908 745.193 739.597 861.226 714.609 889.269 C 707.182 908.599 414.88 1235.386 292.465 1158.277 C 243.359 1127.345 257.162 1046.023 267.712 990.263 C 268.28 987.916 270.836 986.465 274.179 986.77 L 335.797 986.942 C 352.164 986.708 352.774 986.694 359.993 992.255 C 363.572 997.324 386.438 1004.984 401.183 1003.422 C 461.656 997.014 527.52 945.584 553.623 920.356 C 630.229 857.397 702.296 761.426 734.617 717.128 C 735.426 715.656 738.184 712.192 741.676 713.363 C 753.275 718.917 761.466 710.206 762.731 706.82 C 764.719 701.499 765.482 694.486 757.832 686.955 C 757.175 685.571 757.231 683.324 758.102 682.086 C 761.622 677.001 843.483 532.848 840.81 530.601 C 840.81 530.601 843.867 528.609 843.738 528.566 Z"/>
 <path  d="M 281.555 941.04 C 281.477 937.127 305.263 872.57 309.924 862.307 C 311.953 857.839 314.623 855.7 319.781 856.082 C 328.256 856.711 345.913 856.717 345.913 856.717 C 337.248 893.211 335.897 904.857 335.99 936.868 C 336.104 936.868 336.137 941.195 332.783 941.188 C 316.012 941.153 298.977 941.04 281.555 941.04 Z"/>
 <path  d="M 335.04 806 C 339.578 797.076 364.076 750.953 371.419 737.035 C 373.336 733.402 375.77 731.603 380.031 731.925 C 384.336 732.251 388.686 731.997 393.975 731.997 C 391.541 737.693 370.281 787.281 362.116 806.893 C 360.586 810.568 357.993 811.83 354.575 811.945 C 349.248 812.125 343.906 812.123 338.579 811.954 C 333.964 811.807 332.948 810.115 335.04 806 Z" />
 <path  d="M 463.332 613.756 C 461.234 615.938 424.432 677.293 422.496 681.056 C 419.754 686.384 415.742 689.117 409.43 688.045 C 406.685 687.579 403.794 687.967 400.092 687.967 C 402.175 682.785 430.365 637.298 442.373 619.524 C 447.273 612.272 454.3 610.076 463.332 613.756 Z"/>
 <path  d="M 598.273 444.224 C 590.406 453.279 580.42 452.527 569.043 451.568 C 574.516 445.33 626.432 388.13 634.496 378.969 C 637.094 376.017 640.11 374.792 644.091 374.908 C 652.164 375.144 660.248 374.978 669.68 374.978 C 669.424 377.179 604.734 436.734 598.273 444.224 Z"/>
<path d="M 1042.167 338.557 C 1047.32 341.993 1047.28 342.889 1053.387 350.904 C 1088.32 418.503 1106.538 457.744 1152.123 549.035 C 1157.742 560.288 1156.69 559.37 1158.981 572.094 L 1158.927 959.284 C 1158.227 971.626 1151.806 980.843 1140.673 980.907 C 1141.302 981.117 747.647 981.09 746.767 980.797 C 737.938 979.827 732.468 973.884 730.948 964.606 C 730.948 964.606 730.27 889.766 730.999 882.877 C 731.448 878.633 759.504 845.16 759.705 844.848 C 760.033 844.339 763.348 842.099 763.348 842.099 C 763.348 842.099 764.822 845.566 764.972 846.545 C 765.093 847.332 764.153 938.755 764.153 938.755 C 763.547 945.669 764.621 946.774 770.134 947.01 C 769.262 946.138 836.893 946.995 837.897 947.999 C 842.818 947.658 842.851 946.585 842.964 941.755 L 842.933 736.516 C 843.813 729.293 846.329 724.463 851.228 718.656 L 851.82 723.507 L 852.02 942.919 C 852.114 946.989 854.081 947.082 856.529 946.975 C 873.616 946.25 931.378 947.805 931.378 947.806 C 937.672 948.34 939.719 946.15 939.945 940.574 L 939.97 731.629 C 940.711 724.205 927.896 716.03 930.37 716.747 L 956.238 716.132 C 959.376 713.793 945.417 725.988 946.077 731.722 L 946.043 944.795 C 946.037 945.306 946.088 946.351 946.618 946.441 C 974.298 949.331 1038.386 947.796 1038.578 946.834 C 1041.389 946.423 1042.089 946.283 1041.938 943.45 L 1041.92 729.023 C 1042.358 721.989 1031.483 717.877 1032.25 716.28 L 1056.145 717.11 C 1059.845 715.002 1048.932 721.269 1049.151 728.957 L 1048.96 942.687 C 1049.392 945.412 1051.406 947.234 1054.736 946.91 L 1120.156 947.081 C 1125.054 945.671 1125.266 945.631 1125.231 941.121 C 1125.231 925.256 1125.03 608.524 1125.03 608.524 C 1125.491 601.475 1124.037 599.892 1118.117 599.944 C 1118.117 599.944 942.754 599.971 940.571 599.911 C 934.435 600.511 924.583 595.857 928.565 584.832 C 928.556 584.887 956.913 529.687 957.555 530.113 C 958.157 530.113 957.947 562.476 957.947 562.476 C 958.059 566.272 959.801 566.852 962.145 566.881 L 1116.783 567.784 C 1121.61 566.527 1125.293 565.481 1123.144 560.177 L 1027.28 372.383 C 1026.71 371.584 1024.263 370.23 1022.804 370.044 C 1019.956 369.68 1018.233 370.296 1016.619 369.616 C 1015.986 369.553 1014.928 367.986 1014.944 365.913 L 1020.566 340.557 C 1021.711 338.277 1022.988 337.354 1024.934 337.061 C 1033.314 335.935 1041.913 337.858 1042.167 338.557 Z"/>
  <ellipse cx="1044.094" cy="707.154" rx="15.885" ry="15.885"/>
  <ellipse cx="942.987" cy="707.735" rx="15.885" ry="15.885"/>
<style>svg{background-color: #FFF;}path,ellipse{fill:#1cf8ed;}</style>
</svg>