<?xml version="1.0" encoding="utf-8"?>
<!-- Generator: Adobe Illustrator 18.0.0, SVG Export Plug-In . SVG Version: 6.00 Build 0)  -->
<!DOCTYPE svg PUBLIC "-//W3C//DTD SVG 1.1//EN" "http://www.w3.org/Graphics/SVG/1.1/DTD/svg11.dtd">
<svg version="1.1" id="_x32_" xmlns="http://www.w3.org/2000/svg" xmlns:xlink="http://www.w3.org/1999/xlink" x="0px" y="0px"
	 viewBox="0 0 512 512" style="enable-background:new 0 0 512 512;" xml:space="preserve">
<style type="text/css">
	.st0{fill:#4B4B4B;}
</style>
<g>
	<path class="st0" d="M448.282,367.411H63.712c-19.812,0-35.928,16.114-35.928,35.924c0,19.814,16.116,35.932,35.928,35.932h384.57
		c19.814,0,35.934-16.118,35.934-35.932C484.216,383.526,468.096,367.411,448.282,367.411z"/>
	<path class="st0" d="M425.958,340.707c-8.653-14.375-13.226-30.765-13.226-47.396v-78.824c0-78.145-57.706-144.27-134.748-155.09
		c5.693-6.534,8.793-14.759,8.793-23.474c0-19.81-16.12-35.924-35.934-35.924c-19.808,0-35.924,16.114-35.924,35.924
		c0,9.324,3.729,18.272,10.326,24.996C152.058,75.478,99.269,139.562,99.269,214.488v78.824c0,16.627-4.573,33.016-13.224,47.396
		l-1.45,2.41h342.813L425.958,340.707z"/>
	<path class="st0" d="M201.956,470.773C206.051,494.663,226.61,512,250.84,512c24.235,0,44.8-17.337,48.896-41.227l0.32-1.86h-98.42
		L201.956,470.773z"/>
</g>
</svg>
