<!--?xml version="1.0" encoding="utf-8"?-->
<!-- Generator: Adobe Illustrator 18.1.1, SVG Export Plug-In . SVG Version: 6.00 Build 0)  -->

<svg version="1.1" id="_x32_" xmlns="http://www.w3.org/2000/svg" xmlns:xlink="http://www.w3.org/1999/xlink" x="0px" y="0px" viewBox="0 0 512 512" style="width: 32px; height: 32px; opacity: 1;" xml:space="preserve">
<style type="text/css">
	.st0{fill:#4B4B4B;}
</style>
<g>
	<path class="st0" d="M389.618,88.15l-54.668,78.072c6.58,4.631,12.713,9.726,18.366,15.396
		c25.042,25.057,40.342,59.202,40.374,97.38c-0.032,38.177-15.332,72.258-40.374,97.348c-25.025,24.978-59.17,40.31-97.292,40.31
		c-20.906,0-40.566-4.663-58.197-12.856c-3.689-1.709-7.218-3.57-10.636-5.606c-3.514-1.996-6.868-4.184-10.094-6.452
		c-6.596-4.6-12.728-9.758-18.446-15.396c-24.978-25.089-40.31-59.17-40.31-97.348c0-38.178,15.332-72.323,40.31-97.38
		c16.689-16.657,37.435-28.986,60.751-35.383v41.068l92.534-93.636L219.403,0v48.854C108.105,66.454,23.046,162.74,23.03,278.998
		c0.016,78.926,39.288,148.685,99.385,190.816c5.51,3.857,11.196,7.49,17.104,10.94c5.861,3.33,11.85,6.516,18.031,9.398
		c29.897,13.951,63.244,21.792,98.475,21.848c128.706-0.08,232.93-104.304,232.946-233.002
		C488.97,200.016,449.699,130.32,389.618,88.15z" style="fill: rgb(75, 75, 75);"></path>
</g>
</svg>
